<svg xmlns="http://www.w3.org/2000/svg" xmlns:xlink="http://www.w3.org/1999/xlink" width="40.731" height="46.885" viewBox="0 0 40.731 46.885">
  <defs>
    <linearGradient id="linear-gradient" x1="0.5" x2="0.5" y2="1" gradientUnits="objectBoundingBox">
      <stop offset="0" stop-color="#0057a9"/>
      <stop offset="1" stop-color="#2293fc"/>
    </linearGradient>
  </defs>
  <g id="_001-request" data-name="001-request" transform="translate(-10.606 -1)">
    <path id="Tracé_374" data-name="Tracé 374" d="M225.467,0h-24.6A8.06,8.06,0,0,0,192.8,8.064v36.9a1.916,1.916,0,0,0,3.063,1.531l7.69-5.768h21.914a8.06,8.06,0,0,0,8.064-8.064V8.064A8.06,8.06,0,0,0,225.467,0Zm-12.3,31.505a1.914,1.914,0,1,1,1.914-1.914A1.915,1.915,0,0,1,213.166,31.505Zm1.914-8.465v.4a1.914,1.914,0,0,1-3.828,0v-2.05a1.914,1.914,0,0,1,1.914-1.914,3.211,3.211,0,1,0-3.211-3.214,1.914,1.914,0,1,1-3.828,0v0a7.039,7.039,0,1,1,8.953,6.777Zm0,0" transform="translate(-182.195 1)" fill="url(#linear-gradient)"/>
  </g>
</svg>
