<svg id="_003-user" data-name="003-user" xmlns="http://www.w3.org/2000/svg" xmlns:xlink="http://www.w3.org/1999/xlink" width="37.469" height="44.91" viewBox="0 0 37.469 44.91">
  <defs>
    <linearGradient id="linear-gradient" x1="0.5" x2="0.5" y2="1" gradientUnits="objectBoundingBox">
      <stop offset="0" stop-color="#0057a9"/>
      <stop offset="1" stop-color="#2293fc"/>
    </linearGradient>
  </defs>
  <path id="Tracé_273" data-name="Tracé 273" d="M97.848,21.633a10.466,10.466,0,0,0,7.648-3.169,10.466,10.466,0,0,0,3.169-7.648A10.468,10.468,0,0,0,105.5,3.168a10.814,10.814,0,0,0-15.3,0,10.467,10.467,0,0,0-3.169,7.648A10.466,10.466,0,0,0,90.2,18.465,10.469,10.469,0,0,0,97.848,21.633Zm0,0" transform="translate(-79.397)" fill="url(#linear-gradient)"/>
  <path id="Tracé_274" data-name="Tracé 274" d="M37.378,260.157a26.717,26.717,0,0,0-.364-2.838,22.355,22.355,0,0,0-.7-2.853,14.094,14.094,0,0,0-1.173-2.661,10.041,10.041,0,0,0-1.769-2.3,7.8,7.8,0,0,0-2.541-1.6,8.779,8.779,0,0,0-3.243-.587,3.292,3.292,0,0,0-1.758.746c-.527.344-1.143.741-1.831,1.181a10.492,10.492,0,0,1-2.37,1.044,9.2,9.2,0,0,1-5.8,0,10.466,10.466,0,0,1-2.368-1.044c-.682-.435-1.3-.833-1.833-1.181a3.287,3.287,0,0,0-1.757-.746,8.769,8.769,0,0,0-3.243.588,7.793,7.793,0,0,0-2.541,1.6,10.044,10.044,0,0,0-1.768,2.3,14.123,14.123,0,0,0-1.173,2.661,22.414,22.414,0,0,0-.7,2.853,26.62,26.62,0,0,0-.364,2.839c-.06.859-.09,1.751-.09,2.652a7.457,7.457,0,0,0,2.215,5.642,7.973,7.973,0,0,0,5.707,2.082H29.547a7.971,7.971,0,0,0,5.707-2.082,7.454,7.454,0,0,0,2.215-5.642C37.468,261.9,37.438,261.012,37.378,260.157Zm0,0" transform="translate(0 -225.623)" fill="url(#linear-gradient)"/>
</svg>
